<svg data-v-fde0c5aa="" xmlns="http://www.w3.org/2000/svg" viewBox="0 0 300 300" class="iconAbove"><!----><defs data-v-fde0c5aa=""><linearGradient data-v-fde0c5aa="" gradientTransform="rotate(25)" id="4638689c-ccd0-446f-b622-60a99333472e" x1="0%" y1="0%" x2="100%" y2="0%"><stop data-v-fde0c5aa="" offset="0%" stop-color="#0D2175" stop-opacity="1"></stop><stop data-v-fde0c5aa="" offset="100%" stop-color="#1F1EFB" stop-opacity="1"></stop></linearGradient></defs><rect data-v-fde0c5aa="" fill="url(#4638689c-ccd0-446f-b622-60a99333472e)" x="0" y="0" width="300px" height="300px" class="logo-background-square"></rect><defs data-v-fde0c5aa=""><!----></defs><g data-v-fde0c5aa="" id="5f85f276-2154-4a2f-94a7-86aefaf8c44c" fill="#ffffff" transform="matrix(3.9489674128425056,0,0,3.9489674128425056,22.80376677838253,170.72843144610871)"><path d="M0.85 6.77L0.85 1.94L5.68 1.94L5.68 3.54L5.68 3.54Q5.68 3.58 5.65 3.58L5.65 3.58L2.78 3.58L2.78 5.70L5.35 5.70L5.35 5.71L5.35 5.71Q5.35 5.81 5.32 6.75L5.32 6.75L5.32 6.75Q5.30 6.75 5.30 6.77L5.30 6.77L5.42 6.77L5.42 7.27L3.19 7.27L3.19 9.28L2.60 9.28L2.60 9.47L3.19 9.47L3.19 10.08L5.71 10.08L5.71 10.32L5.52 10.32L5.52 11.52L2.50 11.52L2.50 11.73L1.07 11.73L1.07 8.22L0.85 8.22L0.85 6.99L-0.71 6.99L-0.71 6.77L0.85 6.77ZM1.67 6.77L0.87 6.77L0.87 6.99L1.67 6.99L1.67 6.77ZM3.34 10.04L3.34 9.59L3.46 9.59L3.46 9.75L3.47 9.75L3.47 9.75Q3.47 9.71 3.62 9.59L3.62 9.59L3.74 9.59L3.58 9.77L3.75 10.04L3.64 10.04L3.64 10.04Q3.51 9.85 3.49 9.85L3.49 9.85L3.49 9.85Q3.46 9.86 3.46 9.88L3.46 9.88L3.46 10.04L3.34 10.04ZM3.92 10.04L3.92 9.59L4.15 9.59L4.15 9.59Q4.26 9.59 4.30 9.72L4.30 9.72L4.30 9.72Q4.30 9.74 4.23 9.84L4.23 9.84L4.23 9.84Q4.28 9.84 4.30 10.04L4.30 10.04L4.22 10.04L4.22 10.04Q4.18 10.04 4.16 9.87L4.16 9.87L4.03 9.87L4.03 10.04L3.92 10.04ZM4.66 9.59L4.66 9.59L4.72 9.59L4.72 9.59Q4.87 9.59 4.91 9.79L4.91 9.79L4.91 9.85L4.91 9.85Q4.91 9.91 4.86 9.97L4.86 9.97L4.86 9.99L4.86 9.99Q4.91 9.99 4.91 10.01L4.91 10.01L4.91 10.01Q4.91 10.04 4.86 10.07L4.86 10.07L4.86 10.07Q4.83 10.07 4.81 10.01L4.81 10.01L4.72 10.04L4.66 10.04L4.66 10.04Q4.50 10.04 4.48 9.79L4.48 9.79L4.48 9.79Q4.53 9.59 4.66 9.59ZM4.59 9.79L4.59 9.79L4.59 9.84L4.59 9.84Q4.59 9.95 4.71 9.95L4.71 9.95L4.72 9.95L4.72 9.93L4.70 9.93L4.70 9.92L4.70 9.92Q4.70 9.89 4.74 9.87L4.74 9.87L4.79 9.90L4.79 9.90Q4.79 9.89 4.81 9.80L4.81 9.80L4.81 9.80Q4.80 9.67 4.68 9.67L4.68 9.67L4.68 9.67Q4.59 9.69 4.59 9.79ZM4.15 9.69L4.03 9.69L4.03 9.79L4.15 9.79L4.15 9.79Q4.18 9.79 4.18 9.75L4.18 9.75L4.18 9.72L4.18 9.72Q4.18 9.69 4.15 9.69L4.15 9.69ZM5.62 10.51L5.62 10.41L5.71 10.41L5.71 10.43L5.71 10.43Q5.71 10.73 5.67 10.73L5.67 10.73L5.67 10.73Q5.62 10.73 5.62 10.51L5.62 10.51ZM5.62 10.84L5.62 10.74L5.71 10.74L5.71 10.84L5.62 10.84ZM6.19 8.85L6.19 1.93L8.13 1.93L8.13 5.95L7.75 5.95L7.75 10.10L10.64 10.10L10.64 10.97L10.07 10.97L10.07 11.17L10.64 11.17L10.64 11.73L8.77 11.73L8.77 11.58L6.20 11.58L6.20 11.58Q6.19 11.42 6.19 11.33L6.19 11.33L6.19 9.15L6.68 9.15L6.68 8.85L6.19 8.85ZM8.01 9.79L7.88 9.59L8.00 9.59L8.00 9.59Q8.08 9.71 8.09 9.71L8.09 9.71L8.09 9.71Q8.15 9.59 8.18 9.59L8.18 9.59L8.28 9.59L8.28 9.59Q8.26 9.65 8.15 9.79L8.15 9.79L8.15 9.79Q8.18 9.86 8.29 10.02L8.29 10.02L8.18 10.02L8.18 10.02Q8.09 9.95 8.09 9.88L8.09 9.88L8.09 9.88Q8.08 9.88 7.98 10.02L7.98 10.02L7.88 10.02L7.88 10.00L8.01 9.80L8.01 9.79ZM10.64 11.17L10.64 10.97L11.35 10.97L11.35 11.17L10.64 11.17ZM15.09 1.93L15.09 1.93L15.09 1.93Q17.20 1.93 17.86 3.41L17.86 3.41L17.86 3.41Q18.24 4.13 18.24 6.18L18.24 6.18L18.24 6.23L17.51 6.23L17.51 6.56L18.24 6.56L18.24 10.09L17.76 10.09L17.76 11.37L16.81 11.37L16.81 11.73L13.49 11.73L13.49 11.37L13.08 11.37L13.08 10.09L12.22 10.09L12.22 9.09L12.74 9.09L12.74 8.57L12.22 8.57L12.22 9.09L11.01 9.09L11.01 8.57L11.93 8.57L11.93 8.57Q11.92 7.37 11.92 6.73L11.92 6.73L11.92 5.90L11.92 5.90Q11.92 3.58 12.70 2.79L12.70 2.79L12.70 2.79Q13.43 1.93 15.09 1.93ZM13.90 5.31L13.90 5.31L13.91 5.31L13.90 5.34L13.90 6.23L13.16 6.23L13.16 6.56L13.90 6.56L13.90 6.56Q13.88 8.67 13.88 9.75L13.88 9.75L13.88 10.09L15.52 10.09L15.52 9.55L16.27 9.55L16.27 9.54L16.27 9.54Q16.27 8.54 16.26 6.75L16.26 6.75L16.26 6.75Q16.26 6.68 16.27 6.37L16.27 6.37L16.27 6.37Q16.27 4.44 16.04 4.00L16.04 4.00L16.04 4.00Q15.81 3.58 15.19 3.58L15.19 3.58L14.94 3.58L14.94 3.58Q14.21 3.58 14.03 4.22L14.03 4.22L14.03 4.22Q13.95 4.55 13.90 5.31ZM18.24 6.56L18.24 6.23L19.41 6.23L19.41 6.56L18.24 6.56ZM18.29 6.64L18.32 6.62L18.35 6.62L18.35 6.62Q18.40 6.62 18.42 6.82L18.42 6.82L18.42 6.82Q18.44 6.82 18.50 6.62L18.50 6.62L18.55 6.62L18.55 6.62Q18.59 6.62 18.61 6.83L18.61 6.83L18.63 6.83L18.68 6.62L18.76 6.62L18.76 6.64L18.76 6.64Q18.68 6.99 18.65 6.99L18.65 6.99L18.58 6.99L18.58 6.99Q18.58 6.97 18.53 6.78L18.53 6.78L18.52 6.78L18.52 6.78Q18.49 6.99 18.45 6.99L18.45 6.99L18.38 6.99L18.38 6.99Q18.33 6.78 18.29 6.64L18.29 6.64ZM18.35 7.11L18.35 7.11L18.42 7.11L18.42 7.11Q18.46 7.11 18.52 7.34L18.52 7.34L18.53 7.34L18.53 7.34Q18.53 7.31 18.59 7.11L18.59 7.11L18.71 7.11L18.71 7.49L18.63 7.49L18.63 7.29L18.61 7.29L18.61 7.29Q18.57 7.49 18.53 7.49L18.53 7.49L18.48 7.49L18.48 7.49Q18.44 7.33 18.44 7.31L18.44 7.31L18.42 7.31L18.42 7.31Q18.42 7.49 18.38 7.49L18.38 7.49L18.32 7.49L18.32 7.14L18.32 7.14Q18.33 7.11 18.35 7.11ZM18.30 7.60L18.30 7.60L18.37 7.60L18.37 7.60Q18.45 7.65 18.45 7.72L18.45 7.72L18.45 7.72Q18.46 7.72 18.55 7.60L18.55 7.60L18.61 7.60L18.61 7.64L18.52 7.78L18.52 7.78Q18.52 7.79 18.63 7.96L18.63 7.96L18.63 7.98L18.55 7.98L18.45 7.86L18.45 7.86Q18.40 7.98 18.37 7.98L18.37 7.98L18.29 7.98L18.29 7.98Q18.40 7.81 18.40 7.78L18.40 7.78L18.40 7.78Q18.30 7.63 18.30 7.60ZM18.35 8.09L18.35 8.09L18.45 8.09L18.45 8.09Q18.61 8.09 18.61 8.21L18.61 8.21L18.61 8.22L18.58 8.27L18.58 8.27Q18.61 8.27 18.63 8.33L18.63 8.33L18.63 8.39L18.63 8.39Q18.59 8.47 18.46 8.47L18.46 8.47L18.32 8.47L18.32 8.13L18.32 8.13Q18.33 8.09 18.35 8.09ZM18.52 8.18L18.42 8.18L18.42 8.24L18.52 8.24L18.52 8.18ZM15.88 8.54L15.88 8.18L15.98 8.18L15.98 8.31L16.09 8.31L16.09 8.21L16.09 8.21Q16.10 8.18 16.13 8.18L16.13 8.18L16.19 8.18L16.19 8.54L16.09 8.54L16.09 8.39L15.98 8.39L15.98 8.54L15.88 8.54ZM18.50 8.31L18.42 8.31L18.42 8.39L18.53 8.39L18.53 8.34L18.53 8.34Q18.53 8.31 18.50 8.31L18.50 8.31ZM18.35 8.59L18.35 8.59L18.57 8.59L18.57 8.59Q18.59 8.59 18.59 8.62L18.59 8.62L18.59 8.67L18.42 8.67L18.42 8.73L18.58 8.73L18.58 8.81L18.42 8.81L18.42 8.88L18.59 8.88L18.59 8.96L18.32 8.96L18.32 8.62L18.32 8.62Q18.33 8.59 18.35 8.59ZM15.88 8.75L15.88 8.67L16.15 8.67L16.15 8.70L16.15 8.70Q16.15 8.76 15.99 8.95L15.99 8.95L15.99 8.95Q16.17 8.95 16.17 8.98L16.17 8.98L16.17 9.03L15.86 9.03L15.86 8.96L15.86 8.96Q15.98 8.82 16.02 8.75L16.02 8.75L15.88 8.75ZM14.16 9.14L14.16 9.14L14.16 9.14Q14.30 9.14 14.32 9.36L14.32 9.36L14.32 9.36Q14.32 9.52 14.12 9.54L14.12 9.54L14.12 9.54Q13.96 9.50 13.96 9.36L13.96 9.36L13.96 9.36Q13.96 9.14 14.16 9.14ZM15.98 9.16L15.98 9.16L16.07 9.16L16.07 9.16Q16.07 9.20 16.21 9.52L16.21 9.52L16.13 9.52L16.13 9.52Q16.09 9.52 16.09 9.45L16.09 9.45L15.98 9.45L15.98 9.45Q15.94 9.45 15.94 9.52L15.94 9.52L15.85 9.52L15.85 9.50L15.85 9.50Q15.88 9.44 15.98 9.16ZM14.06 9.29L14.06 9.29L14.06 9.36L14.06 9.36Q14.06 9.45 14.16 9.45L14.16 9.45L14.16 9.45Q14.23 9.44 14.23 9.36L14.23 9.36L14.23 9.29L14.23 9.29Q14.23 9.26 14.16 9.22L14.16 9.22L14.12 9.22L14.12 9.22Q14.10 9.22 14.06 9.29ZM16.01 9.29L16.01 9.29L15.99 9.37L16.06 9.37L16.06 9.37Q16.04 9.29 16.01 9.29ZM14.12 9.63L14.12 9.63L14.12 9.63Q14.23 9.63 14.29 9.73L14.29 9.73L14.29 9.78L14.21 9.78L14.21 9.78Q14.21 9.71 14.11 9.71L14.11 9.71L14.06 9.78L14.06 9.84L14.06 9.84Q14.06 9.95 14.16 9.95L14.16 9.95L14.16 9.95Q14.17 9.95 14.24 9.86L14.24 9.86L14.31 9.86L14.31 9.86Q14.31 10.00 14.12 10.03L14.12 10.03L14.12 10.03Q13.96 9.98 13.96 9.84L13.96 9.84L13.96 9.84Q13.98 9.63 14.12 9.63ZM22.26 1.96L22.26 1.96L22.26 1.96Q23.89 1.96 24.45 3.01L24.45 3.01L24.45 3.01Q24.83 3.80 24.83 4.56L24.83 4.56L24.81 4.56L24.81 4.56Q23.70 4.66 23.29 4.66L23.29 4.66L23.29 4.66Q23.29 4.12 22.96 3.75L22.96 3.75L22.96 3.75Q22.64 3.57 22.37 3.57L22.37 3.57L22.10 3.57L22.10 3.57Q21.40 3.57 21.25 4.11L21.25 4.11L21.25 4.11Q21.22 4.27 21.22 4.35L21.22 4.35L21.22 4.50L21.22 4.50Q21.22 5.26 22.03 5.61L22.03 5.61L22.03 5.61Q22.09 5.67 23.15 6.12L23.15 6.12L23.15 6.12Q23.71 6.38 24.19 6.76L24.19 6.76L24.19 6.77L22.47 6.77L22.47 6.97L24.73 6.97L24.73 7.24L25.02 7.24L25.02 10.21L24.46 10.21L24.46 11.73L20.11 11.73L20.11 10.21L19.09 10.21L19.09 9.18L19.67 9.18L19.67 8.83L19.09 8.83L19.09 8.59L21.08 8.59L21.08 10.21L23.11 10.21L23.11 7.77L21.59 7.77L21.59 6.97L19.69 6.97L19.69 6.77L20.61 6.77L20.61 6.76L20.61 6.76Q19.41 5.96 19.41 4.50L19.41 4.50L19.41 4.37L19.41 4.37Q19.41 3.14 20.16 2.51L20.16 2.51L20.16 2.51Q20.84 1.96 22.26 1.96ZM24.73 6.97L24.73 6.77L25.42 6.77L25.42 6.97L24.73 6.97ZM18.43 9.18L18.43 8.83L19.09 8.83L19.09 9.18L18.43 9.18ZM22.81 8.83L22.81 8.83L23.02 8.83L23.02 8.83Q23.05 8.83 23.05 8.86L23.05 8.86L23.05 8.91L22.87 8.91L22.87 8.97L23.03 8.97L23.03 9.02L23.03 9.02Q23.03 9.05 23.00 9.05L23.00 9.05L22.87 9.05L22.87 9.12L23.05 9.12L23.05 9.17L23.05 9.17Q23.05 9.19 23.02 9.19L23.02 9.19L22.81 9.19L22.81 9.19Q22.78 9.19 22.78 9.17L22.78 9.17L22.78 8.86L22.78 8.86Q22.78 8.83 22.81 8.83ZM22.73 9.31L22.73 9.31L22.79 9.31L22.79 9.31Q22.80 9.31 22.91 9.43L22.91 9.43L22.91 9.43Q22.96 9.31 22.98 9.31L22.98 9.31L23.03 9.31L23.03 9.31Q23.06 9.31 23.06 9.34L23.06 9.34L23.06 9.34Q22.92 9.50 22.92 9.68L22.92 9.68L22.87 9.68L22.87 9.68Q22.84 9.68 22.83 9.49L22.83 9.49L22.83 9.49Q22.73 9.36 22.73 9.31ZM22.68 9.79L22.68 9.79L22.74 9.79L22.74 9.79Q22.78 9.79 22.83 10.00L22.83 10.00L22.86 10.00L22.86 10.00Q22.90 9.79 22.93 9.79L22.93 9.79L23.00 9.79L23.00 9.79Q23.03 9.80 23.03 9.82L23.03 9.82L23.03 10.12L23.03 10.12Q23.03 10.16 23.00 10.16L23.00 10.16L22.96 10.16L22.96 9.95L22.93 9.95L22.87 10.16L22.83 10.16L22.83 10.16Q22.79 10.16 22.74 9.95L22.74 9.95L22.73 9.95L22.73 10.16L22.68 10.16L22.68 10.16Q22.65 10.16 22.65 10.12L22.65 10.12L22.65 9.82L22.65 9.82Q22.65 9.79 22.68 9.79ZM24.55 10.62L24.55 10.29L24.72 10.29L24.72 10.29Q24.85 10.29 24.85 10.42L24.85 10.42L24.85 10.42Q24.81 10.42 24.81 10.45L24.81 10.45L24.81 10.45Q24.86 10.51 24.86 10.56L24.86 10.56L24.86 10.56Q24.82 10.66 24.68 10.66L24.68 10.66L24.59 10.66L24.59 10.66Q24.55 10.66 24.55 10.62L24.55 10.62ZM24.75 10.37L24.65 10.37L24.65 10.43L24.72 10.43L24.72 10.43Q24.75 10.43 24.75 10.40L24.75 10.40L24.75 10.37ZM24.73 10.49L24.65 10.49L24.65 10.58L24.73 10.58L24.73 10.58Q24.77 10.58 24.77 10.54L24.77 10.54L24.77 10.53L24.77 10.53Q24.77 10.49 24.73 10.49L24.73 10.49ZM24.55 11.10L24.55 10.77L24.62 10.77L24.62 10.77Q24.66 10.77 24.77 10.99L24.77 10.99L24.78 10.99L24.78 10.77L24.86 10.77L24.86 11.10L24.86 11.10Q24.86 11.14 24.83 11.14L24.83 11.14L24.79 11.14L24.79 11.14Q24.78 11.14 24.64 10.93L24.64 10.93L24.64 11.10L24.64 11.10Q24.64 11.14 24.60 11.14L24.60 11.14L24.59 11.14L24.59 11.14Q24.55 11.14 24.55 11.10L24.55 11.10ZM29.36 6.62L29.36 1.93L31.30 1.93L31.30 5.84L33.26 5.84L33.26 1.93L34.91 1.93L34.91 7.50L34.23 7.50L34.23 7.75L34.91 7.75L34.91 11.73L33.30 11.73L33.30 11.73Q33.26 11.73 33.26 11.70L33.26 11.70L33.26 7.46L31.30 7.46L31.30 11.70L31.30 11.70Q31.30 11.73 31.27 11.73L31.27 11.73L29.64 11.73L29.64 6.62L29.36 6.62ZM34.91 7.75L34.91 7.50L35.78 7.50L35.78 7.75L34.91 7.75ZM39.48 1.95L39.48 1.95L39.48 1.95Q41.59 1.95 42.25 3.42L42.25 3.42L42.25 3.42Q42.63 4.14 42.63 6.19L42.63 6.19L42.63 6.23L41.90 6.23L41.90 6.56L42.63 6.56L42.63 10.10L42.15 10.10L42.15 11.37L41.20 11.37L41.20 11.73L37.88 11.73L37.88 11.37L37.47 11.37L37.47 10.10L36.62 10.10L36.62 9.10L37.13 9.10L37.13 8.57L36.62 8.57L36.62 9.10L35.41 9.10L35.41 8.57L36.33 8.57L36.33 8.57Q36.31 7.38 36.31 6.74L36.31 6.74L36.31 5.91L36.31 5.91Q36.31 3.58 37.10 2.80L37.10 2.80L37.10 2.80Q37.82 1.95 39.48 1.95ZM38.29 5.32L38.29 5.32L38.31 5.32L38.29 5.35L38.29 6.23L37.56 6.23L37.56 6.56L38.29 6.56L38.29 6.56Q38.27 8.67 38.27 9.75L38.27 9.75L38.27 10.10L39.91 10.10L39.91 9.56L40.66 9.56L40.66 9.54L40.66 9.54Q40.66 8.54 40.65 6.75L40.65 6.75L40.65 6.75Q40.65 6.68 40.66 6.38L40.66 6.38L40.66 6.38Q40.66 4.45 40.43 4.01L40.43 4.01L40.43 4.01Q40.20 3.58 39.58 3.58L39.58 3.58L39.34 3.58L39.34 3.58Q38.60 3.58 38.42 4.24L38.42 4.24L38.42 4.24Q38.34 4.56 38.29 5.32ZM42.63 6.56L42.63 6.23L43.80 6.23L43.80 6.56L42.63 6.56ZM43.51 9.38L43.51 1.98L45.68 1.98L45.68 1.98Q46.05 3.29 47.16 7.23L47.16 7.23L48.02 7.23L48.02 7.23Q48.06 7.23 48.30 6.30L48.30 6.30L48.30 6.30Q48.84 4.44 49.52 1.98L49.52 1.98L51.53 1.98L51.53 8.31L51.64 8.31L51.64 9.46L51.03 9.46L51.03 9.67L51.64 9.67L51.64 11.73L49.93 11.73L49.93 10.97L50.14 10.97L50.14 8.63L49.78 8.63L49.78 7.46L49.57 7.46L49.55 7.53L49.37 7.53L49.37 9.19L48.77 9.19L48.77 9.97L48.27 9.97L48.27 11.29L47.07 11.29L47.07 10.45L46.33 10.45L46.33 9.30L45.88 9.30L45.88 8.09L45.63 8.09L45.63 8.09Q45.62 8.00 45.47 7.46L45.47 7.46L47.20 7.46L47.15 7.23L45.42 7.23L45.47 7.46L45.24 7.46L45.24 8.98L45.35 8.98L45.35 10.64L44.93 10.64L44.93 10.94L45.35 10.94L45.35 11.38L43.80 11.38L43.80 9.38L43.51 9.38ZM45.24 6.54L45.22 6.54L45.22 6.66L45.22 6.66Q45.22 6.81 45.24 7.23L45.24 7.23L45.40 7.23L45.40 7.23Q45.24 6.58 45.24 6.54L45.24 6.54ZM49.80 6.56L49.78 6.56L49.64 7.23L49.78 7.23L49.78 7.23Q49.80 6.82 49.80 6.62L49.80 6.62L49.80 6.56ZM45.22 7.23L44.68 7.23L44.68 7.46L45.22 7.46L45.22 7.23ZM49.62 7.23L48.05 7.23L48.00 7.46L49.55 7.46L49.55 7.46Q49.62 7.29 49.62 7.23L49.62 7.23ZM50.98 7.23L49.80 7.23L49.80 7.46L50.98 7.46L50.98 7.23ZM47.97 7.46L47.23 7.46L47.23 7.46Q47.34 7.99 47.38 7.99L47.38 7.99L47.58 7.99L47.58 8.87L47.89 8.87L47.89 7.51L47.97 7.51L47.97 7.46ZM51.64 9.67L51.64 9.46L52.63 9.46L52.63 9.67L51.64 9.67ZM43.36 11.61L43.36 11.46L45.10 11.46L45.10 11.61L43.36 11.61ZM53.07 6.80L53.07 2.00L57.87 2.00L57.87 3.60L57.87 3.60Q57.87 3.63 57.83 3.63L57.83 3.63L54.99 3.63L54.99 5.74L57.54 5.74L57.54 5.76L57.54 5.76Q57.54 5.84 57.51 6.79L57.51 6.79L57.51 6.79Q57.49 6.79 57.49 6.80L57.49 6.80L57.61 6.80L57.61 7.29L55.40 7.29L55.40 9.29L54.80 9.29L54.80 9.49L55.40 9.49L55.40 10.10L57.90 10.10L57.90 10.32L57.70 10.32L57.70 11.52L54.71 11.52L54.71 11.73L53.29 11.73L53.29 8.24L53.07 8.24L53.07 7.01L51.52 7.01L51.52 6.80L53.07 6.80ZM53.89 6.80L53.09 6.80L53.09 7.01L53.89 7.01L53.89 6.80ZM61.97 1.96L61.97 1.96L61.97 1.96Q63.59 1.96 64.15 3.01L64.15 3.01L64.15 3.01Q64.53 3.80 64.53 4.56L64.53 4.56L64.52 4.56L64.52 4.56Q63.40 4.66 62.99 4.66L62.99 4.66L62.99 4.66Q62.99 4.12 62.66 3.75L62.66 3.75L62.66 3.75Q62.34 3.57 62.08 3.57L62.08 3.57L61.80 3.57L61.80 3.57Q61.11 3.57 60.96 4.11L60.96 4.11L60.96 4.11Q60.92 4.27 60.92 4.35L60.92 4.35L60.92 4.50L60.92 4.50Q60.92 5.26 61.73 5.61L61.73 5.61L61.73 5.61Q61.80 5.67 62.85 6.12L62.85 6.12L62.85 6.12Q63.41 6.38 63.89 6.76L63.89 6.76L63.89 6.77L62.17 6.77L62.17 6.97L64.44 6.97L64.44 7.24L64.72 7.24L64.72 10.21L64.16 10.21L64.16 11.73L59.81 11.73L59.81 10.21L58.79 10.21L58.79 9.18L59.37 9.18L59.37 8.83L58.79 8.83L58.79 8.59L60.78 8.59L60.78 10.21L62.82 10.21L62.82 7.77L61.29 7.77L61.29 6.97L59.40 6.97L59.40 6.77L60.31 6.77L60.31 6.76L60.31 6.76Q59.11 5.96 59.11 4.50L59.11 4.50L59.11 4.37L59.11 4.37Q59.11 3.14 59.86 2.51L59.86 2.51L59.86 2.51Q60.55 1.96 61.97 1.96ZM64.44 6.97L64.44 6.77L65.13 6.77L65.13 6.97L64.44 6.97ZM58.13 9.18L58.13 8.83L58.79 8.83L58.79 9.18L58.13 9.18Z"></path></g><defs data-v-fde0c5aa=""><!----></defs><g data-v-fde0c5aa="" id="1016e961-6e86-403c-81c8-e0b98e2bcd0c" stroke="none" fill="#ffffff" transform="matrix(0.0014779689370823777,0,0,0.0014779689370823777,105.6570623223721,77.31025408654337)"><path d="M11749 54732l7959-8315 13-12c347-301 425-783 328-1328-97-547-365-1147-723-1706-361-565-812-1084-1271-1464-527-436-1038-678-1374-551-491 228-928 233-1329 96-381-130-714-385-1025-693-489-484-848-1013-776-1761 67-690 524-1539 1646-2673 1123-1136 1966-1603 2655-1678 747-81 1280 272 1769 755 306 303 562 626 697 1001 142 394 150 826-55 1320h1c-134 351 118 877 571 1412 384 453 907 896 1476 1250 563 350 1163 608 1706 696 546 88 1029 1 1330-356l19-20 4049-4090-4079-4039c-558-477-704-1179-579-1951 103-639 396-1327 790-1960 390-627 882-1207 1389-1637 717-608 1485-922 2097-688l11 5c320 135 592 134 833 46 263-95 508-293 747-534 354-358 614-736 562-1218-58-540-469-1244-1477-2240-1010-998-1718-1401-2258-1453-483-47-856 217-1210 575-243 246-441 498-532 766-83 244-76 516 72 832l8 19c237 596-63 1354-656 2069-421 509-998 1009-1625 1410-632 404-1319 709-1955 822-773 138-1480 1-1962-556l-5710-6171L3063 31354l7612 16c188 0 341 153 341 341h1v19600c0 1356 87 2435 527 3144 61 99 130 190 208 276zm2615-34497l5732 6194 8 8c301 347 783 425 1328 328 547-97 1147-365 1706-723 565-361 1084-812 1464-1271 436-527 678-1038 551-1374-228-491-233-928-96-1329 130-381 385-714 693-1025 484-489 1013-848 1761-776 690 67 1539 524 2673 1646 1136 1123 1603 1966 1678 2655 81 747-272 1280-755 1769-303 306-626 562-1001 697-394 142-826 150-1320-55v1c-351-134-877 118-1412 571-453 384-896 907-1250 1476-350 563-608 1163-696 1706-88 546-1 1029 355 1330l20 19 4090 4049 4039-4079c477-558 1179-704 1951-579 639 103 1327 396 1960 790 627 390 1207 882 1637 1389 608 717 922 1485 688 2097l-5 11c-135 320-134 592-46 833 95 263 293 508 534 747 358 354 736 614 1218 562 540-58 1244-469 2240-1477 998-1010 1401-1718 1453-2258 47-483-217-856-575-1210-246-243-498-441-766-532-244-83-516-76-832 72l-19 8c-596 237-1354-63-2069-656-509-421-1009-998-1410-1625-404-632-709-1319-822-1955-137-768-2-1470 545-1953l6045-5967-1942-1896c-74-72-108-168-103-263l95-13689-6812 18 154 6533c4 188-145 345-333 349-93 2-178-33-240-91l-6702-6234-15412 15162zm31785 589l-6059 5982-16 15c-347 301-425 783-328 1328 97 547 365 1147 723 1706 361 565 812 1084 1271 1464 527 436 1038 678 1374 551 491-228 928-233 1329-96 381 130 714 385 1025 693 489 484 848 1013 776 1761-67 690-524 1539-1646 2673-1123 1136-1966 1603-2655 1678-747 81-1280-272-1769-755-306-303-562-626-697-1001-142-394-150-826 55-1320h-1c134-351-118-877-571-1412-384-453-907-896-1476-1250-563-350-1163-608-1706-696-546-88-1029-1-1330 355l-19 20-4049 4090 4079 4039c558 477 704 1179 579 1951-103 639-396 1327-790 1960-390 627-882 1207-1389 1637-717 608-1485 922-2097 688l-11-5c-320-135-592-134-833-46-263 95-508 293-747 534-354 358-614 736-562 1218 58 540 469 1244 1477 2240 1010 998 1718 1401 2258 1453 483 47 856-217 1210-575 243-246 441-498 532-766 83-244 76-516-72-832l-8-19c-237-596 63-1354 656-2069 421-509 998-1009 1625-1410 632-404 1319-709 1955-822 767-137 1469-3 1952 544l8221 8153c6-9 11-18 17-26 440-709 527-1788 527-3144 0-11 1-22 2-32l120-19569c1-188 153-340 341-340l7512-15-10787-10533zm1801 34157l-8242-8173-17-19c-301-347-783-425-1328-328-547 97-1147 365-1706 723-565 361-1084 812-1464 1271-436 527-678 1038-551 1374 228 491 233 928 96 1329-130 381-385 714-693 1025-484 489-1013 848-1761 776-690-67-1539-524-2673-1646-1136-1123-1603-1966-1678-2655-81-747 272-1280 755-1769 303-306 626-562 1001-697 394-142 826-150 1320 55v-1c351 134 877-118 1412-571 453-384 896-907 1250-1476 350-563 608-1163 696-1706 88-546 1-1029-356-1330l-20-19-4090-4049-4039 4079c-477 558-1179 704-1951 579-639-103-1327-396-1960-790-627-390-1207-882-1637-1389-608-717-922-1485-688-2097l5-11c135-320 134-592 46-833-95-263-293-509-534-747-358-354-736-614-1218-562-540 58-1244 469-2240 1477-998 1010-1401 1718-1453 2258-47 483 217 856 575 1210 246 243 498 441 766 532 244 83 516 76 832-72l19-8c596-237 1354 63 2069 656 509 421 1009 998 1410 1625 404 632 709 1319 822 1955 136 766 3 1467-541 1949l-7886 8239c447 231 1051 352 1863 352h31654c991 0 1671-180 2134-519zm-2134 1204H14161c-1690 0-2651-483-3199-1367-527-849-631-2035-631-3505V32053l-8086-17c-93 4-188-30-258-102-132-134-130-351 4-483L29525 4365c129-135 343-142 480-14l6348 5905-143-6071v-8c0-188 153-341 341-341l7506-20c188 1 340 154 340 342l-96 13905 13712 13388c64 62 103 149 103 244 0 188-153 341-341 341l-8009 16-118 19232c1 9 1 19 1 28 0 1470-104 2656-631 3505-549 884-1510 1367-3199 1367z"></path></g><!----></svg>